# xmcd
#
# Track frame offsets: 
#        150
#        15920
#        24515
#        41345
#
# Disc length: 770 seconds
#
# Revision: 2
# Processed by: cddbd v1.5.2PL0 Copyright (c) Steve Scherf et al.
# Submitted via: ExactAudioCopy v0.99pb4
#
DISCID=1d030004
DTITLE=Barrington Pheloung - Inspector Morse Theme
DYEAR=1992
DGENRE=Classical
TTITLE0=Inspector Morse Theme (Full Length Version)
TTITLE1=Promised Land (From "Promised Land")
TTITLE2=Quiet Awakening (From "Twilight Of The Gods")
TTITLE3=Eirl Theme (From "Who Killed Harry Field")
EXTD=
EXTT0=
EXTT1=
EXTT2=
EXTT3=
PLAYORDER=
